<svg width="53" height="47" viewBox="0 0 53 47" fill="none" xmlns="http://www.w3.org/2000/svg">
<path d="M28.404 0.413055C27.428 -0.138945 26.273 -0.120945 25.314 0.457055C25.268 0.484055 25.224 0.516055 25.184 0.550055L11.634 12.0131H1C0.447 12.0131 0 12.4601 0 13.0131V32.0131C0 32.2791 0.105 32.5331 0.293 32.7201C0.481 32.9071 0.734 33.0131 1 33.0131L11.61 33.0081L25.153 45.4481C25.203 45.4941 25.257 45.5341 25.314 45.5681C25.806 45.8651 26.351 46.0141 26.896 46.0141C27.413 46.0131 27.929 45.8801 28.404 45.6121C29.403 45.0481 30 44.0181 30 42.8571V3.16906C30 2.00806 29.403 0.978055 28.404 0.413055ZM28 42.8571C28 43.2881 27.783 43.6671 27.421 43.8721C27.266 43.9591 26.873 44.1271 26.421 43.8981L13 31.5691V27.0131C13 26.4601 12.553 26.0131 12 26.0131C11.447 26.0131 11 26.4601 11 27.0131V31.0091L2 31.0131V14.0131H11V18.0131C11 18.5661 11.447 19.0131 12 19.0131C12.553 19.0131 13 18.5661 13 18.0131V13.4771L26.405 2.13706C26.866 1.89506 27.265 2.06706 27.421 2.15506C27.783 2.36006 28 2.73906 28 3.16906V42.8571Z" fill="black"/>
<path d="M38.797 4.06603C38.274 3.88903 37.706 4.16903 37.528 4.69203C37.351 5.21403 37.631 5.78303 38.154 5.96103C45.255 8.37203 50.026 15.024 50.026 22.514C50.026 29.997 45.264 36.65 38.177 39.068C37.655 39.246 37.375 39.814 37.554 40.338C37.696 40.753 38.084 41.015 38.5 41.015C38.607 41.015 38.716 40.998 38.823 40.961C46.719 38.268 52.025 30.855 52.025 22.515C52.026 14.166 46.71 6.75303 38.797 4.06603Z" fill="black"/>
<path d="M43.026 22.5131C43.026 16.5411 39.017 11.2111 33.277 9.5511C32.744 9.4001 32.193 9.7031 32.039 10.2351C31.886 10.7651 32.191 11.3201 32.723 11.4731C37.612 12.8861 41.027 17.4261 41.027 22.5131C41.027 27.6001 37.612 32.1401 32.723 33.5531C32.192 33.7061 31.886 34.2611 32.039 34.7911C32.166 35.2291 32.565 35.5141 33 35.5141C33.092 35.5141 33.185 35.5011 33.277 35.4751C39.018 33.8151 43.026 28.4851 43.026 22.5131Z" fill="black"/>
</svg>
